# xmcd
#
# Track frame offsets:
#	150
#	13076
#	26000
#	42070
#	52721
#	66448
#	83784
#	99882
#	111889
#	129294
#	144048
#	158275
#	172964
#	189287
#
# Disc length: 2690 seconds
#
# Revision: 1
# Processed by: cddbd v1.5.2PL0 Copyright (c) Steve Scherf et al.
# Submitted via: audiograbber 1.83.01
#
DISCID=990a800e
DTITLE=Truck Stop - 6 Richtige
DYEAR=2010
DGENRE=Countrymusik
TTITLE0=Was Soll`n Wir Denn In Nashville
TTITLE1=Einfach Mal Nichts Tun
TTITLE2=Halt Mal Eben Mein Bier
TTITLE3=Hello I`m Johnny Cash
TTITLE4=Ju Kän Denglisch
TTITLE5=Freiheit Um Die Nase
TTITLE6=Ein Cowboy Ohne Pferd
TTITLE7=Rodeo
TTITLE8=Es Liegt In Menschenhand
TTITLE9=Ich Bin Wieder Frei
TTITLE10=HH Für Hamburg
TTITLE11=Sicherheitskurt
TTITLE12=Auf Dem Highway Der Gefühle
TTITLE13=100.000 Kilometer
EXTD=
EXTT0=
EXTT1=
EXTT2=
EXTT3=
EXTT4=
EXTT5=
EXTT6=
EXTT7=
EXTT8=
EXTT9=
EXTT10=
EXTT11=
EXTT12=
EXTT13=
PLAYORDER=
